<?xml version="1.0" encoding="UTF-8"?>
<svg version="1.1" xmlns="http://www.w3.org/2000/svg" width="1646" height="695">
<path d="M0 0 C0.6707959 0.45036621 1.3415918 0.90073242 2.03271484 1.36474609 C3.72535236 2.52442981 5.36798072 3.7564562 7 5 C7 5.66 7 6.32 7 7 C6.23703613 6.9292627 5.47407227 6.85852539 4.68798828 6.78564453 C-3.93144341 6.04713277 -12.47684932 5.84871383 -21.125 5.875 C-23.04505859 5.86919922 -23.04505859 5.86919922 -25.00390625 5.86328125 C-31.6702501 5.87010453 -38.11711047 6.08470721 -44.71386719 7.09082031 C-48.54391549 6.93866547 -50.4657343 4.5532179 -53.02734375 1.91796875 C-59.8806778 -4.74537188 -69.15269383 -7.51781161 -78.453125 -8.0859375 C-88.35669532 -7.84598315 -97.10419452 -4.09083836 -104 3 C-111.50080104 12.31418151 -114.79015223 22.04894751 -114 34 C-113.33370934 38.5201764 -112.26321924 42.61590694 -110.3125 46.75 C-108.85147446 50.36777753 -108.89914462 51.36717723 -110 55 C-111.41796875 57.21875 -111.41796875 57.21875 -113.1875 59.5 C-123.55523413 73.91264067 -126.2237395 89.62782527 -127 107 C-131.35425582 105.54858139 -132.33007345 102.24913188 -134.3125 98.375 C-134.70695313 97.61896484 -135.10140625 96.86292969 -135.5078125 96.08398438 C-138.72677361 89.79809777 -141.40989242 83.38272893 -143.90625 76.78125 C-144.73405321 74.13285787 -144.73405321 74.13285787 -146 73 C-147.33476935 92.2429248 -140.56954232 111.27769141 -127.9765625 125.83984375 C-127.32429687 126.55269531 -126.67203125 127.26554688 -126 128 C-125.11441406 129.02287109 -125.11441406 129.02287109 -124.2109375 130.06640625 C-111.61762301 143.75828647 -92.89615055 151.01357346 -75.75 157.0625 C-63.03327915 161.55953155 -52.19778031 166.97958331 -42 176 C-41.38769531 176.51820313 -40.77539062 177.03640625 -40.14453125 177.5703125 C-29.77314587 187.01610513 -22.02489104 201.17774598 -21.078125 215.1640625 C-21.05234375 215.76992188 -21.0265625 216.37578125 -21 217 C-22.32 217.33 -23.64 217.66 -25 218 C-25.45890625 217.38511719 -25.9178125 216.77023437 -26.390625 216.13671875 C-27.00421875 215.32847656 -27.6178125 214.52023437 -28.25 213.6875 C-28.85328125 212.88699219 -29.4565625 212.08648437 -30.078125 211.26171875 C-31.92939568 209.08308923 -33.57208361 207.50045233 -36 206 C-36.99 206 -37.98 206 -39 206 C-38.50628906 206.95261719 -38.01257813 207.90523437 -37.50390625 208.88671875 C-36.85644963 210.15348171 -36.20933206 211.42041801 -35.5625 212.6875 C-35.07426758 213.62625977 -35.07426758 213.62625977 -34.57617188 214.58398438 C-32.83777065 218.00702183 -31.26384526 221.13703485 -31 225 C-33 228 -33 228 -36.125 228.8125 C-41.46254376 227.6933376 -42.95400048 224.91175036 -46.0078125 220.578125 C-48.84666574 216.90431492 -51.5770489 214.47431703 -56 213 C-55.566875 213.80824219 -55.13375 214.61648438 -54.6875 215.44921875 C-54.130625 216.51785156 -53.57375 217.58648437 -53 218.6875 C-52.443125 219.74324219 -51.88625 220.79898437 -51.3125 221.88671875 C-50.0327726 224.92226262 -49.71148957 226.76026826 -50 230 C-63.88379117 229.55924472 -76.7012079 223.51570752 -88.87670898 217.24804688 C-100.15600792 211.6040115 -111.7751186 209.4841286 -124.25 208.5 C-151.3068653 206.00776111 -173.2193457 199.29957973 -193 180 C-193.68449219 179.38898438 -194.36898437 178.77796875 -195.07421875 178.1484375 C-205.21623797 168.83563998 -213.38513877 156.02152862 -220 144 C-219.37597837 161.47260563 -209.31221415 178.20697464 -197.55859375 190.6328125 C-188.22574397 199.26747963 -177.30046896 205.33393853 -166 211 C-168.36134244 214.54201366 -169.58926798 214.81875271 -173.5 216.25 C-179.70589133 218.71596642 -184.71934556 221.95669448 -190 226 C-190.928125 226.66 -191.85625 227.32 -192.8125 228 C-194.78577452 229.8041367 -196.11485324 231.45162513 -197.63671875 233.625 C-198.30320435 234.57246094 -198.30320435 234.57246094 -198.9831543 235.5390625 C-199.48649292 236.26222656 -199.48649292 236.26222656 -200 237 C-199.4423999 236.72325439 -198.8847998 236.44650879 -198.31030273 236.16137695 C-187.09359485 230.62503577 -176.09729108 225.32878479 -164 222 C-162.90945313 221.68289063 -161.81890625 221.36578125 -160.6953125 221.0390625 C-134.01583651 214.4448156 -104.67805001 218.96871785 -81.07543945 232.76538086 C-73.20952522 237.56505452 -66.15675455 243.42916938 -59.02734375 249.234375 C-58.35695068 249.77739258 -57.68655762 250.32041016 -56.99584961 250.87988281 C-55.69577126 251.93521246 -54.40072175 252.99677727 -53.11157227 254.06542969 C-48.19513483 258.07116864 -44.17694104 260.2778466 -37.6875 260.4375 C-36.80449219 260.47746094 -35.92148437 260.51742188 -35.01171875 260.55859375 C-28.92449555 259.4295757 -24.53041456 256.09303826 -20.91015625 251.14453125 C-19.94787031 249.70919572 -18.99895364 248.26482121 -18.0625 246.8125 C-17.02929831 245.28726652 -15.99153144 243.76511553 -14.94921875 242.24609375 C-14.19777588 241.14950439 -14.19777588 241.14950439 -13.43115234 240.03076172 C-5.99234703 229.47532286 4.00430601 220.11536208 17.05078125 217.60546875 C18.69435935 217.35843797 20.34690555 217.17219734 22 217 C22.33 217.99 22.66 218.98 23 220 C22.24074219 220.58007812 21.48148437 221.16015625 20.69921875 221.7578125 C19.20841797 222.92957031 19.20841797 222.92957031 17.6875 224.125 C16.70136719 224.89070313 15.71523438 225.65640625 14.69921875 226.4453125 C11.87387344 229.11937304 10.50983534 231.44441506 9 235 C10.66289063 234.13375 10.66289063 234.13375 12.359375 233.25 C13.82269983 232.49957701 15.28625355 231.74960026 16.75 231 C17.47960937 230.6184375 18.20921875 230.236875 18.9609375 229.84375 C19.66992188 229.4828125 20.37890625 229.121875 21.109375 228.75 C21.75874023 228.41484375 22.40810547 228.0796875 23.07714844 227.734375 C25 227 25 227 29 227 C29.87554886 231.99062848 29.87554886 231.99062848 29 235 C25.24047482 238.64182365 20.9634749 241.34550837 16 243 C14.57782892 245.92335167 13.7645896 248.85445155 13 252 C13.74765625 251.51789063 14.4953125 251.03578125 15.265625 250.5390625 C16.25046875 249.90742188 17.2353125 249.27578125 18.25 248.625 C19.22453125 247.99851562 20.1990625 247.37203125 21.203125 246.7265625 C27.40142518 242.90023753 27.40142518 242.90023753 30.25 243.375 C31.11625 243.684375 31.11625 243.684375 32 244 C33.462934 277.21402008 21.50018428 316.08393055 -1 341 C-22.5174758 359.69355568 -56.3268948 368.05459524 -84 371 C-84.9796875 371.11085938 -85.959375 371.22171875 -86.96875 371.3359375 C-138.50333851 376.25031836 -191.55557235 361.57715542 -232 329 C-232.51336914 328.58814453 -233.02673828 328.17628906 -233.55566406 327.75195312 C-253.07752223 311.98748963 -268.3666772 293.67845019 -281 272 C-281.35400879 271.4004248 -281.70801758 270.80084961 -282.07275391 270.18310547 C-306.08713996 229.0848108 -314.51772704 173.48400659 -304 127 C-303.80132324 126.09266113 -303.60264648 125.18532227 -303.39794922 124.25048828 C-298.9348392 104.3754403 -291.60368048 85.92624224 -282 68 C-281.67531738 67.38930664 -281.35063477 66.77861328 -281.01611328 66.14941406 C-276.39073984 57.52489993 -271.0817482 49.66783452 -265 42 C-264.32582031 41.12085938 -263.65164063 40.24171875 -262.95703125 39.3359375 C-253.47705892 27.27698584 -242.27250208 16.20035543 -230 7 C-229.39494629 6.54560547 -228.78989258 6.09121094 -228.16650391 5.62304688 C-159.1658607 -45.75933055 -70.92068136 -48.89725351 0 0 Z " fill="#FAFBFA" transform="translate(442,205)"/>
<path d="M0 0 C8.23472982 6.0317117 11.88021975 14.97154541 16 24 C16.33 24 16.66 24 17 24 C17.66 19.38 18.32 14.76 19 10 C39.67700347 3.456305 63.7233794 7.27734537 82.89404297 16.75219727 C90.35308724 20.63169764 96.6998062 25.42104051 103 31 C104.22550418 32.02522724 105.45394752 33.04697075 106.6875 34.0625 C107.450625 34.701875 108.21375 35.34125 109 36 C108.484375 34.9275 107.96875 33.855 107.4375 32.75 C106.42649058 30.64710041 105.9857234 29.3335533 106.0859375 26.9921875 C107.43932374 24.04249954 109.4473913 23.05382504 112.1875 21.375 C113.12980469 20.78460938 114.07210937 20.19421875 115.04296875 19.5859375 C121.57030252 16.08514819 127.67126887 14.98269738 135 16 C140.10827926 18.02656325 143.76803939 20.87961979 146 26 C148.37362318 33.81600206 147.74072748 42.2706056 144.41015625 49.671875 C141.29915081 54.80805019 136.95999662 58.69333559 132 62 C129.546875 61.9375 129.546875 61.9375 127 61 C125.015625 58.75 125.015625 58.75 123.25 56 C122.65703125 55.0925 122.0640625 54.185 121.453125 53.25 C120.97359375 52.5075 120.4940625 51.765 120 51 C119.67 50.67 119.34 50.34 119 50 C119.12117187 50.72703125 119.24234375 51.4540625 119.3671875 52.203125 C119.91145833 55.46875 120.45572917 58.734375 121 62 C121.25136719 63.2384668 121.25136719 63.2384668 121.5078125 64.50195312 C123.05906677 72.60725671 123.30778991 80.55358585 123.26074219 88.77246094 C123.25001436 90.99702192 123.26070347 93.22077572 123.2734375 95.4453125 C123.29690084 118.91598655 123.29690084 118.91598655 117 126 C111.15828777 131.77855859 104.9935103 136.69240308 98 141 C95.26562621 134.47529505 94.52363582 128.02637166 95 121 C97.90201794 119.06532137 99.0812834 118.69898159 102.375 118.1875 C106.87745231 117.26354399 109.12083491 115.68893027 112 112 C112.33 111.01 112.66 110.02 113 109 C111.845 109.495 110.69 109.99 109.5 110.5 C105.14717108 112.15562957 101.62477967 112.24775605 97 112 C95.40210649 107.04653013 96.71693186 102.86717585 98 98 C96.8778856 99.12826297 95.77830683 100.27894119 94.6875 101.4375 C94.07261719 102.07558594 93.45773437 102.71367187 92.82421875 103.37109375 C88.50220991 109.59959899 87.49121276 116.37615943 87.625 123.8125 C87.63080078 124.6163916 87.63660156 125.4202832 87.64257812 126.24853516 C87.80863181 134.21142427 88.99492851 141.96856266 90.34375 149.8046875 C90.86961988 152.90923701 91.1534898 155.84066826 91 159 C88.28834577 160.35582711 86.96158279 159.60457138 84 159 C75.84346502 158.5250394 68.36920846 158.1680116 61 162 C59.32220447 165.35559107 59.39805999 167.26797196 60 171 C62.04900757 173.30191854 64.23843322 175.17822011 66.640625 177.10546875 C68.92779179 178.94201824 70.96298266 180.89290179 73 183 C67.82004749 186.97129692 61.99336354 187.30769635 55.66796875 186.8203125 C46.49037183 185.24517327 40.51701342 180.17671537 35.125 172.8125 C34.40570313 171.78769531 33.68640625 170.76289063 32.9453125 169.70703125 C31.15460315 167.05606445 31.15460315 167.05606445 29.2421875 165.26171875 C28 164 28 164 28 162 C27.41734375 161.73445312 26.8346875 161.46890625 26.234375 161.1953125 C23.93388999 159.96463346 22.22488125 158.57339787 20.25 156.875 C10.02588633 148.85836542 -2.35474638 144.24937256 -14.46582031 139.87719727 C-30.3377038 134.09626096 -41.22814027 126.33550366 -49.44140625 111.39453125 C-55.27370376 98.69210886 -54.93225355 85.21237191 -51 72 C-48.06802617 64.52390962 -44.0032375 56.48656542 -38 51 C-34.78125 49.7578125 -34.78125 49.7578125 -32 49 C-32.47050781 48.31035156 -32.94101562 47.62070312 -33.42578125 46.91015625 C-40.43101151 36.33704475 -43.51092103 27.89417076 -42 15 C-39.73648785 7.05037038 -34.60959352 1.73805987 -28 -3 C-18.94277085 -7.83052221 -8.09303961 -5.5553916 0 0 Z " fill="#F9F9F9" transform="translate(380,212)"/>
<path d="M0 0 C0.83917969 0.35835938 1.67835938 0.71671875 2.54296875 1.0859375 C11.18951605 5.08077641 18.54069172 11.03074633 25 18 C25.59167969 18.58652344 26.18335938 19.17304688 26.79296875 19.77734375 C37.96480334 31.38135762 45.38712621 47.85210787 46 64 C46.03996094 65.00804687 46.07992187 66.01609375 46.12109375 67.0546875 C46.26586807 74.29340358 45.61453727 80.95192383 44 88 C43.84015625 88.84691406 43.6803125 89.69382812 43.515625 90.56640625 C39.5134882 108.7112292 26.19776422 124.83883203 11 135 C6.46774318 137.72505505 1.87704321 139.98583806 -3 142 C-3.61713867 142.25974609 -4.23427734 142.51949219 -4.87011719 142.78710938 C-23.42289269 150.19298897 -50.53774494 150.34772006 -69.08691406 142.83007812 C-89.97026231 133.76890099 -106.32685287 119.29767074 -115 98 C-116.2590232 94.36764572 -117.21124616 90.76046726 -118 87 C-118.20367188 86.09636719 -118.40734375 85.19273437 -118.6171875 84.26171875 C-122.75509353 64.22405051 -117.85958449 44.07476519 -106.76855469 27.1171875 C-94.3269789 8.91650433 -76.37143747 -1.31791829 -55 -6 C-36.44966958 -8.84805482 -17.33035192 -7.49274935 0 0 Z M-66.3125 41.25 C-75.10881658 52.56310971 -77.31163747 65.15295189 -75.7578125 79.1875 C-73.7292497 89.12331777 -68.18783061 98.98308356 -60 105 C-49.29863967 111.4095959 -38.87448382 113.42820255 -26.6640625 110.7890625 C-17.33315719 108.02536327 -9.14330339 103.11489079 -4.25 94.5625 C-3.47848699 93.05246632 -2.72717439 91.5318784 -2 90 C-1.5359375 89.03126953 -1.5359375 89.03126953 -1.0625 88.04296875 C3.47695986 78.025603 3.71827717 64.59374524 -0.03125 54.23046875 C-4.8829479 43.0598256 -11.02269149 35.76165848 -22.38671875 30.91015625 C-37.55459269 25.6274737 -55.30186479 29.27946326 -66.3125 41.25 Z " fill="#FFFEFE" transform="translate(875,285)"/>
<path d="M0 0 C0.85570084 -0.0033284 1.71140167 -0.0066568 2.59303284 -0.01008606 C4.40454571 -0.01515316 6.21606794 -0.01749445 8.02758789 -0.01733398 C10.80175122 -0.0195197 13.57551649 -0.03767542 16.34960938 -0.05664062 C18.10807155 -0.05957472 19.86653563 -0.06155941 21.625 -0.0625 C22.87197914 -0.07327827 22.87197914 -0.07327827 24.14414978 -0.08427429 C28.07045919 -0.06866988 30.03812256 -0.05922038 33.37890625 2.16796875 C33.67378631 5.10012965 33.77460467 7.82314946 33.74780273 10.75756836 C33.75156921 11.64727325 33.75533569 12.53697815 33.75921631 13.4536438 C33.76566461 15.39122907 33.76530398 17.32884596 33.7590313 19.26643181 C33.74994036 22.34047953 33.76012543 25.41391459 33.77565002 28.4879303 C33.81578436 37.22998031 33.81696358 45.97198455 33.81469727 54.71411133 C33.81464593 60.05930264 33.83393892 65.40416773 33.86403084 70.74926949 C33.87479992 73.7642948 33.86275295 76.77868156 33.85020447 79.79368591 C33.86031848 95.36388871 33.86031848 95.36388871 40.62890625 109.10546875 C48.15527639 114.75024636 55.33158968 116.80450057 64.80078125 115.94921875 C70.28667605 114.96554106 75.28356934 113.02240349 79.37890625 109.16796875 C84.52049075 101.41093804 85.52535026 94.26060549 85.53662109 85.18676758 C85.54170181 84.29192154 85.54678253 83.3970755 85.55201721 82.47511292 C85.56269469 80.53755983 85.57132509 78.59999462 85.57813644 76.66242409 C85.58994335 73.59915876 85.60939742 70.53603326 85.6312561 67.4728241 C85.69283716 58.76553962 85.74704444 50.05827271 85.78027344 41.35083008 C85.80115696 36.02167558 85.83639927 30.69278147 85.88103104 25.36377525 C85.89523137 23.33075703 85.90392252 21.29769281 85.90708542 19.26462746 C85.91196571 16.42980048 85.935045 13.59567248 85.96240234 10.76098633 C85.95789314 9.49315308 85.95789314 9.49315308 85.95329285 8.19970703 C85.98690796 5.86750793 85.98690796 5.86750793 86.37890625 2.16796875 C90.23883295 -0.40531572 93.4394965 -0.1200359 97.9140625 -0.09765625 C99.16575478 -0.10052643 99.16575478 -0.10052643 100.44273376 -0.10345459 C102.20539654 -0.10481485 103.96806939 -0.10112948 105.73071289 -0.09277344 C108.43463518 -0.08205808 111.13789509 -0.09268086 113.84179688 -0.10546875 C115.55338689 -0.10414739 117.26497649 -0.10158549 118.9765625 -0.09765625 C119.78803238 -0.10170471 120.59950226 -0.10575317 121.43556213 -0.10992432 C127.14897776 -0.06195974 127.14897776 -0.06195974 129.37890625 2.16796875 C129.5883054 5.06627002 129.67253847 7.8697578 129.66943359 10.77001953 C129.67615082 11.66144653 129.68286804 12.55287354 129.68978882 13.47131348 C129.70886799 16.43535878 129.71270001 19.39917823 129.71484375 22.36328125 C129.72127204 24.42959689 129.72800043 26.49591161 129.73501587 28.56222534 C129.74701845 32.90852969 129.75069436 37.25475446 129.74951172 41.60107422 C129.74931001 47.13068358 129.77644397 52.65977035 129.81105614 58.18925667 C129.83348138 62.46709456 129.83734428 66.74481065 129.83629227 71.02270126 C129.83863127 73.05815278 129.84735723 75.09360854 129.862957 77.12900162 C130.00884259 98.158285 127.10081193 118.13426426 111.75390625 133.921875 C97.35289111 147.54125609 81.34008486 152.73809165 61.62573242 152.61401367 C59.57823365 152.60551783 57.5335528 152.63436131 55.48632812 152.66601562 C37.36745518 152.7633946 20.88185075 147.23015375 7.59375 134.48046875 C-5.99563716 120.29190226 -10.8181525 103.13382396 -10.73461914 83.81445312 C-10.73476517 82.91595642 -10.73491119 82.01745972 -10.73506165 81.09173584 C-10.73436996 78.14837148 -10.72661269 75.20507193 -10.71875 72.26171875 C-10.71688317 70.21049026 -10.71546052 68.15926132 -10.71446228 66.10803223 C-10.71065795 60.72899122 -10.70084558 55.34997753 -10.6897583 49.97094727 C-10.67949924 44.47412485 -10.67495505 38.97729799 -10.66992188 33.48046875 C-10.65922133 22.70962346 -10.6421701 11.93879838 -10.62109375 1.16796875 C-7.31609922 -0.48452851 -3.63322232 0.0048517 0 0 Z " fill="#FEFEFE" transform="translate(1098.62109375,279.83203125)"/>
<path d="M0 0 C0.83113312 -0.00807175 1.66226624 -0.01614349 2.51858521 -0.02445984 C4.27880772 -0.03829946 6.03905705 -0.04902217 7.79931641 -0.05688477 C10.4904258 -0.07410748 13.18030969 -0.11799412 15.87109375 -0.16210938 C17.58072013 -0.17223552 19.29035695 -0.18075187 21 -0.1875 C22.20642654 -0.21376213 22.20642654 -0.21376213 23.43722534 -0.24055481 C26.83718868 -0.22736328 29.12360832 -0.10936285 31.96972656 1.83374023 C34.01202914 4.78656438 35.49141169 7.84120979 36.875 11.13671875 C37.3112822 12.14383408 37.3112822 12.14383408 37.75637817 13.17129517 C38.68250204 15.31488854 39.59533183 17.4638501 40.5078125 19.61328125 C41.11240949 21.01860454 41.71787123 22.42355612 42.32421875 23.828125 C44.38782682 28.61682999 46.4314031 33.41399112 48.47253418 38.21231079 C51.25640564 44.75407695 54.05326619 51.26760768 57.1328125 57.67578125 C60.03793236 63.78805035 62.57981385 69.9861541 64.98046875 76.3125 C66.28904645 79.58044771 67.845129 82.68750539 69.44140625 85.82421875 C72.81256954 92.48391623 75.73853424 99.29810178 78.6328125 106.17578125 C82.06175714 114.29720091 85.57298566 122.35999883 89.29394531 130.35229492 C90.9192296 133.85566573 92.47918197 137.37919665 94.0078125 140.92578125 C94.51054688 142.08464844 95.01328125 143.24351562 95.53125 144.4375 C96.6328125 147.23828125 96.6328125 147.23828125 96.6328125 149.23828125 C82.1128125 149.23828125 67.5928125 149.23828125 52.6328125 149.23828125 C49.83356223 143.6397807 47.25229628 138.18677936 44.8828125 132.42578125 C44.40908203 131.30139648 44.40908203 131.30139648 43.92578125 130.15429688 C41.6328125 124.60054789 41.6328125 124.60054789 41.6328125 121.23828125 C21.1728125 121.56828125 0.7128125 121.89828125 -20.3671875 122.23828125 C-23.6671875 130.48828125 -26.9671875 138.73828125 -30.3671875 147.23828125 C-30.6971875 147.89828125 -31.0271875 148.55828125 -31.3671875 149.23828125 C-45.8871875 149.23828125 -60.4071875 149.23828125 -75.3671875 149.23828125 C-73.49746044 143.62910007 -71.89778847 138.96953373 -69.3671875 133.80078125 C-65.41916917 125.59130578 -61.93149699 117.19402346 -58.45117188 108.77758789 C-56.24335411 103.48486856 -53.94189048 98.29928691 -51.33984375 93.1875 C-48.93365738 88.45533347 -46.83058156 83.67495336 -44.82763672 78.76074219 C-42.99613023 74.34332735 -41.07815611 69.96680726 -39.15234375 65.58984375 C-38.77113373 64.72292908 -38.38992371 63.8560144 -37.99716187 62.96282959 C-36.80889561 60.26258642 -35.61941882 57.56287919 -34.4296875 54.86328125 C-32.85722862 51.29333985 -31.28557887 47.72304392 -29.71484375 44.15234375 C-29.33722397 43.29408997 -28.95960419 42.43583618 -28.57054138 41.55157471 C-26.35440742 36.50751768 -24.16206688 31.45417625 -22 26.38671875 C-20.11692926 21.97458164 -18.20178591 17.5883417 -16.1796875 13.23828125 C-15.71175781 12.22765625 -15.24382812 11.21703125 -14.76171875 10.17578125 C-14.30152344 9.20640625 -13.84132813 8.23703125 -13.3671875 7.23828125 C-12.59955078 5.59859375 -12.59955078 5.59859375 -11.81640625 3.92578125 C-9.15620531 -1.00742157 -5.05816517 0.04622394 0 0 Z M9.6328125 46.23828125 C9.17841797 47.32882812 9.17841797 47.32882812 8.71484375 48.44140625 C8.29589844 49.446875 7.87695312 50.45234375 7.4453125 51.48828125 C6.98640625 52.59042969 6.5275 53.69257813 6.0546875 54.828125 C5.17152693 56.9462546 4.28646603 59.06359419 3.3984375 61.1796875 C1.02203813 66.85064055 -1.31634199 72.53630614 -3.6171875 78.23828125 C-3.87556396 78.87354736 -4.13394043 79.50881348 -4.40014648 80.16333008 C-5.61504164 83.18943513 -6.57336927 86.06300833 -7.3671875 89.23828125 C4.1828125 89.23828125 15.7328125 89.23828125 27.6328125 89.23828125 C26.70840719 84.61625471 25.31362982 80.54520183 23.578125 76.19921875 C23.12480301 75.05521103 23.12480301 75.05521103 22.662323 73.88809204 C22.02402949 72.2819246 21.3834487 70.67666447 20.74072266 69.07226562 C19.75969802 66.61799834 18.79166625 64.15886434 17.82421875 61.69921875 C17.20130755 60.13640495 16.57763535 58.57389421 15.953125 57.01171875 C15.521707 55.91009903 15.521707 55.91009903 15.08157349 54.78622437 C13.13719551 49.96500683 13.13719551 49.96500683 9.6328125 46.23828125 Z " fill="#FEFFFE" transform="translate(1315.3671875,279.76171875)"/>
<path d="M0 0 C1.03472946 -0.00845947 2.06945892 -0.01691895 3.13554382 -0.02563477 C4.83750664 -0.01652573 4.83750664 -0.01652573 6.57385254 -0.00723267 C7.76916092 -0.01248962 8.9644693 -0.01774658 10.19599915 -0.02316284 C13.47496659 -0.03411466 16.75357155 -0.03153302 20.03253365 -0.02202559 C23.46245212 -0.01443524 26.89234621 -0.02147285 30.32226562 -0.02618408 C36.08244175 -0.03164348 41.84250252 -0.02444528 47.60266113 -0.01016235 C54.2641307 0.00616462 60.92532481 0.00087623 67.5867877 -0.01564157 C73.3040692 -0.02925128 79.02126774 -0.03117866 84.7385602 -0.02332556 C88.15417782 -0.01864617 91.56966594 -0.01803138 94.98527527 -0.02793503 C98.79233606 -0.03552713 102.59886292 -0.02397592 106.40588379 -0.00723267 C107.54052567 -0.01330536 108.67516754 -0.01937805 109.8441925 -0.02563477 C111.3962867 -0.01294556 111.3962867 -0.01294556 112.97973633 0 C113.88011879 0.00113108 114.78050125 0.00226215 115.70816803 0.00342751 C118.45683384 0.4582137 119.33731047 1.17401823 120.98986816 3.38095093 C122.70898082 11.487667 123.32121218 23.10859283 119.92932129 30.77938843 C117.20180163 34.9607842 113.73911439 38.1271006 109.98986816 41.38095093 C109.32986816 42.37095093 108.66986816 43.36095093 107.98986816 44.38095093 C107.32986816 44.38095093 106.66986816 44.38095093 105.98986816 44.38095093 C105.76428223 44.91591187 105.53869629 45.4508728 105.30627441 46.00204468 C103.56339364 49.15164228 101.27777855 51.74091914 98.92736816 54.44345093 C97.92267723 55.61335042 96.91878135 56.78393314 95.91564941 57.95516968 C95.41758789 58.5357312 94.91952637 59.11629272 94.40637207 59.71444702 C92.43747103 62.03084111 90.5255991 64.3914657 88.61486816 66.75595093 C84.44830393 71.87828616 80.12785535 76.8551247 75.78942871 81.83139038 C71.87764555 86.32854048 68.07797704 90.90247459 64.32971191 95.53720093 C60.91961789 99.68168915 57.40812311 103.73785196 53.8861084 107.78744507 C51.14997781 110.88340791 51.14997781 110.88340791 48.98986816 114.38095093 C50.33290764 114.37428909 50.33290764 114.37428909 51.70307922 114.36749268 C60.13448387 114.32744485 68.56585665 114.29698123 76.99733448 114.27732658 C81.33220789 114.26688231 85.66700282 114.2527114 90.00183105 114.23007202 C94.18393922 114.20836655 98.36597181 114.19638715 102.54813194 114.19119644 C104.14495725 114.18749655 105.74177835 114.18027172 107.33857155 114.16949081 C109.57244482 114.15500628 111.80600444 114.15297169 114.03991699 114.15390015 C115.31232742 114.14945892 116.58473785 114.1450177 117.89570618 114.14044189 C120.98986816 114.38095093 120.98986816 114.38095093 123.98986816 116.38095093 C124.26967133 118.85260941 124.36242302 121.07073834 124.31799316 123.54110718 C124.31612 124.24617905 124.31424683 124.95125092 124.31231689 125.6776886 C124.30559298 127.16809823 124.29167158 128.65849012 124.27111816 130.14877319 C124.23994349 132.43791986 124.23014669 134.72637861 124.22424316 137.01571655 C124.21507415 138.46168854 124.2046987 139.9076535 124.19299316 141.35360718 C124.18874329 142.04213272 124.18449341 142.73065826 124.18011475 143.44004822 C124.10703185 148.26378724 124.10703185 148.26378724 122.98986816 149.38095093 C121.28161129 149.47717129 119.56934703 149.50282721 117.85838318 149.50120544 C116.74634018 149.50258011 115.63429718 149.50395477 114.48855591 149.50537109 C113.2578537 149.50177582 112.02715149 149.49818054 110.75915527 149.49447632 C109.47153793 149.49462234 108.18392059 149.49476837 106.85728455 149.49491882 C103.31612057 149.49520679 99.77499017 149.48931029 96.23383403 149.48234487 C92.53691829 149.47611109 88.84000185 149.47550751 85.14308167 149.47431946 C78.13782918 149.47120621 71.13259221 149.46299291 64.12734658 149.45296997 C56.15407941 149.44180863 48.18081151 149.43629833 40.20753849 149.43127453 C23.80163927 149.42081029 7.3957557 149.40321098 -9.01013184 149.38095093 C-9.13947278 144.85127127 -9.21800931 140.32206949 -9.28747559 135.79110718 C-9.32465698 134.510625 -9.36183838 133.23014282 -9.40014648 131.91085815 C-9.53620769 120.09269664 -9.53620769 120.09269664 -4.57263184 114.81845093 C-2.74273488 113.30936339 -0.88877373 111.82890558 0.98986816 110.38095093 C2.49678513 108.65127233 3.95557328 106.87855444 5.36486816 105.06845093 C8.73215009 100.89915439 12.17496539 96.81121422 15.67736816 92.75595093 C20.19012501 87.5244313 24.6114221 82.22530143 28.98986816 76.88095093 C34.7431873 69.86120765 40.60884025 62.94929906 46.53430176 56.07479858 C49.03279527 53.16729305 51.51252461 50.24398023 53.98986816 47.31845093 C54.43483643 46.79412476 54.87980469 46.26979858 55.33825684 45.72958374 C57.94299605 42.65111973 60.46932666 39.53162781 62.98986816 36.38095093 C39.88986816 36.05095093 16.78986816 35.72095093 -7.01013184 35.38095093 C-9.16038428 31.08044604 -8.23710361 25.35367711 -8.25036621 20.57748413 C-8.26007928 18.45493491 -8.2911061 16.33335125 -8.32263184 14.21102905 C-8.32916138 12.86272751 -8.33441205 11.51441905 -8.33825684 10.16610718 C-8.34760254 8.93771118 -8.35694824 7.70931519 -8.36657715 6.44369507 C-8.01013184 3.38095093 -8.01013184 3.38095093 -6.80098724 1.71333885 C-4.42190687 -0.05668565 -2.9518537 0.00370817 0 0 Z " fill="#FEFEFF" transform="translate(946.0101318359375,279.6190490722656)"/>
<path d="M0 0 C7.34184191 6.32184651 7.34184191 6.32184651 10.0625 10.5 C9.71376664 13.76882095 8.57688618 15.33340533 6.19140625 17.515625 C5.61712891 18.04414063 5.04285156 18.57265625 4.45117188 19.1171875 C3.5472168 19.92542969 3.5472168 19.92542969 2.625 20.75 C2.02623047 21.30429687 1.42746094 21.85859375 0.81054688 22.4296875 C-3.66579433 26.5 -3.66579433 26.5 -5.9375 26.5 C-6.2675 27.49 -6.5975 28.48 -6.9375 29.5 C-8.78515625 31.32421875 -8.78515625 31.32421875 -11 33.1875 C-11.73347656 33.81011719 -12.46695313 34.43273437 -13.22265625 35.07421875 C-13.78855469 35.54472656 -14.35445312 36.01523437 -14.9375 36.5 C-18.25555922 35.0525245 -20.42198066 33.20769461 -23 30.6875 C-33.34146663 21.2861667 -44.45933181 19.92901852 -57.9375 20.5 C-66.99365547 21.45327952 -75.05414934 25.65212809 -81.30078125 32.27734375 C-89.46194121 43.36016002 -90.68650713 55.15405469 -89.9375 68.5 C-88.79020012 75.76322129 -86.25725908 81.58732976 -81.9375 87.5 C-81.298125 88.4075 -80.65875 89.315 -80 90.25 C-72.74365017 98.166018 -62.57941492 101.05170119 -52.1640625 101.52734375 C-39.30969012 101.41840839 -28.11945389 96.47791047 -18.9375 87.5 C-18.6075 86.84 -18.2775 86.18 -17.9375 85.5 C-14.05073488 86.06792915 -12.13574651 87.8514821 -9.3125 90.5 C-8.44109375 91.30695313 -7.5696875 92.11390625 -6.671875 92.9453125 C-5.76953125 93.78835938 -4.8671875 94.63140625 -3.9375 95.5 C-2.14979903 97.12936174 -0.35828042 98.75454725 1.4375 100.375 C2.22898437 101.09429687 3.02046875 101.81359375 3.8359375 102.5546875 C5.84812469 104.31270367 7.901311 105.93091757 10.0625 107.5 C9.29741405 114.10756047 4.91123458 117.35005363 0.0625 121.5 C-15.7666609 133.18564526 -33.23768842 138.31489777 -52.75 138.0625 C-53.44450256 138.05890472 -54.13900513 138.05530945 -54.85455322 138.05160522 C-77.93947481 137.88098129 -96.95252182 130.37726221 -113.9375 114.5 C-113.9375 113.84 -113.9375 113.18 -113.9375 112.5 C-114.5975 112.5 -115.2575 112.5 -115.9375 112.5 C-118.18179059 110.02535701 -120.02542414 107.23559368 -121.9375 104.5 C-122.37578125 103.89929688 -122.8140625 103.29859375 -123.265625 102.6796875 C-127.48411703 96.51214536 -129.60801286 89.54567689 -131.9375 82.5 C-132.30230469 81.46488281 -132.66710937 80.42976563 -133.04296875 79.36328125 C-138.3511034 62.37261446 -135.04069038 40.94271778 -126.99804688 25.42211914 C-116.52104718 6.32437079 -99.51705679 -7.68511333 -78.5625 -13.9375 C-52.69938321 -20.953893 -21.16044538 -16.85470549 0 0 Z " fill="#FEFEFE" transform="translate(733.9375,294.5)"/>
<path d="M0 0 C0.83208984 0.00187317 1.66417969 0.00374634 2.52148438 0.00567627 C4.2799887 0.01239599 6.0384781 0.02630895 7.796875 0.046875 C10.48972456 0.07800621 13.18198838 0.08784427 15.875 0.09375 C17.58334047 0.10292128 19.29167499 0.11329744 21 0.125 C21.80630859 0.12924988 22.61261719 0.13349976 23.44335938 0.13787842 C26.70935605 0.17966706 29.38073632 0.28837044 32.5 1.328125 C32.5 38.948125 32.5 76.568125 32.5 115.328125 C33.16 114.998125 33.82 114.668125 34.5 114.328125 C36.54691788 114.23142571 38.59704002 114.20015904 40.64624023 114.19873047 C41.93775497 114.19557831 43.22926971 114.19242615 44.55992126 114.18917847 C45.97614577 114.19096849 47.39236997 114.1930195 48.80859375 114.1953125 C50.25586463 114.19463909 51.70313539 114.19366875 53.15040588 114.19241333 C56.18597489 114.19093765 59.22151449 114.19308644 62.25708008 114.19775391 C66.14887303 114.20344604 70.04059694 114.20017465 73.93238735 114.19418144 C76.92206848 114.19056799 79.91173325 114.19171812 82.90141487 114.19430923 C84.33634512 114.1949766 85.77127685 114.19415673 87.20620537 114.19182968 C89.21225837 114.18929094 91.21831657 114.19384629 93.22436523 114.19873047 C94.93740089 114.19992386 94.93740089 114.19992386 96.68504333 114.20114136 C99.5 114.328125 99.5 114.328125 102.5 115.328125 C102.5 126.548125 102.5 137.768125 102.5 149.328125 C87.78390116 149.35067283 73.06781299 149.36910464 58.35170078 149.37993717 C51.51921026 149.38509993 44.68673121 149.39214223 37.85424805 149.40356445 C31.26664695 149.41457207 24.67905469 149.42040123 18.09144402 149.42300224 C15.57191721 149.424857 13.05239109 149.42847857 10.53286934 149.43385506 C7.01742235 149.44106176 3.50202539 149.4421161 -0.01342773 149.44165039 C-1.06646591 149.44524567 -2.11950409 149.44884094 -3.20445251 149.45254517 C-4.15662659 149.4511705 -5.10880066 149.44979584 -6.08982849 149.44837952 C-7.33839709 149.44976221 -7.33839709 149.44976221 -8.61218929 149.45117283 C-10.5 149.328125 -10.5 149.328125 -11.5 148.328125 C-11.60307998 146.46210755 -11.63521934 144.59215221 -11.64044189 142.72329712 C-11.64900711 140.89765984 -11.64900711 140.89765984 -11.65774536 139.03514099 C-11.65899085 137.67398081 -11.66011592 136.31282052 -11.66113281 134.95166016 C-11.66575866 133.52782563 -11.670783 132.10399234 -11.67617798 130.68016052 C-11.68932673 126.8020433 -11.69575176 122.9239434 -11.70018864 119.04580736 C-11.70311544 116.62509329 -11.70721949 114.204384 -11.71169281 111.78367233 C-11.72537439 104.2161952 -11.73503775 96.64872894 -11.7388947 89.0812403 C-11.74337695 80.33389389 -11.76092974 71.58670362 -11.7898953 62.8394047 C-11.81148474 56.0860994 -11.82159752 49.33283811 -11.82293582 42.57949865 C-11.82398584 38.54232439 -11.8299352 34.50529677 -11.84775543 30.46815872 C-11.86418893 26.67114887 -11.86641483 22.87439662 -11.85761642 19.07736397 C-11.85684349 17.68214162 -11.86122234 16.28690569 -11.87107468 14.89171791 C-11.88371737 12.99016032 -11.87615377 11.08850006 -11.86749268 9.18692017 C-11.86895924 8.1217045 -11.8704258 7.05648884 -11.8719368 5.95899391 C-11.5 3.328125 -11.5 3.328125 -10.21335983 1.48422813 C-7.17239323 -0.56768819 -3.54356949 -0.05426179 0 0 Z " fill="#FFFEFE" transform="translate(1436.5,279.671875)"/>
<path d="M0 0 C5.10568195 1.88150563 8.82155584 4.57255728 13 8 C13.60199219 8.48082031 14.20398438 8.96164062 14.82421875 9.45703125 C21.89068812 15.7295153 27.44639139 26.38392339 28.23828125 35.84765625 C28.48169142 46.39115985 26.76589639 54.14099455 19.875 62.3125 C12.72013605 69.68985563 4.9148493 73.59512166 -5 76 C-6.23593891 72.29218328 -5.5678132 71.32489747 -4.0625 67.8125 C-3.68222656 66.91144531 -3.30195313 66.01039063 -2.91015625 65.08203125 C-2.60980469 64.39496094 -2.30945313 63.70789063 -2 63 C-7.27545026 66.04460826 -11.84370918 69.43049048 -16.3359375 73.546875 C-19.50124597 76.31094718 -21.88557912 76.1714342 -26 76 C-26.66 75.67 -27.32 75.34 -28 75 C-27.47729735 70.09690194 -25.9987369 66.81611493 -23.4375 62.625 C-22.79683594 61.56539063 -22.15617187 60.50578125 -21.49609375 59.4140625 C-21.00238281 58.61742187 -20.50867188 57.82078125 -20 57 C-25.81708783 58.93902928 -29.01535439 61.70953869 -33.10546875 66.2578125 C-35.11555176 68.10625997 -36.33437137 68.609908 -39 69 C-41.15399177 66.66650892 -41.96127926 65.33002675 -42.3359375 62.13671875 C-41.9220316 58.27199275 -40.84637251 57.14434561 -38.125 54.4375 C-32.06669776 48.34662624 -31.6107317 42.81130246 -30.7578125 34.47265625 C-29.30879894 27.83258894 -25.65863361 24.38077114 -20.25 20.5625 C-11.82307116 14.42170879 -5.39831835 9.01764542 0 0 Z " fill="#F4F4F3" transform="translate(511,335)"/>
<path d="M0 0 C3.09044 4.63566 1.4868051 8.66890066 0.43017578 13.95605469 C-4.70277148 38.34483703 -14.39799654 62.36874128 -30 82 C-30.67417969 82.8765625 -31.34835937 83.753125 -32.04296875 84.65625 C-39.92628286 94.65039685 -49.147989 105.16725233 -60 112 C-60.99 111.67 -61.98 111.34 -63 111 C-62.80889648 110.47792969 -62.61779297 109.95585938 -62.42089844 109.41796875 C-55.59445739 90.65552428 -49.89222442 72.18716607 -49.83203125 52.0390625 C-49.8278569 51.27063019 -49.82368256 50.50219788 -49.81938171 49.71047974 C-49.80746656 46.54491716 -49.80216397 43.38067842 -49.84545898 40.21533203 C-50.01884006 25.1388498 -50.01884006 25.1388498 -45.71484375 20.06640625 C-38.43003747 13.28236237 -29.52249866 11.24802979 -20.13232422 8.95336914 C-13.40436596 7.25435607 -5.03777503 5.03777503 0 0 Z " fill="#F4F4F3" transform="translate(533,410)"/>
<path d="M0 0 C2.33275458 0.37625074 4.52636493 0.79577203 6.703125 1.734375 C14.79006287 5.10923883 23.40799807 4.25025248 32 4 C31.78125 6.32421875 31.78125 6.32421875 31 9 C26.23272901 12.83084276 20.26990866 14.86627753 14.16796875 14.48828125 C8.92071848 13.30646813 5.18350044 10.21308795 1.5 6.4375 C0 4 0 4 0 0 Z " fill="#121212" transform="translate(397,314)"/>
<path d="M0 0 C11.59737501 -0.75498282 11.59737501 -0.75498282 16.43359375 2.54296875 C22.09840202 7.81222931 24.72149264 13.34104762 25 21 C21.76198484 20.68973722 20.30096342 20.29130988 17.9296875 17.99609375 C17.25164062 17.15175781 16.57359375 16.30742187 15.875 15.4375 C11.75714784 10.59746129 7.35572117 7.1187818 2.08984375 3.59375 C1.40019531 3.0678125 0.71054687 2.541875 0 2 C0 1.34 0 0.68 0 0 Z " fill="#101010" transform="translate(354,222)"/>
<path d="M0 0 C0.66 0.99 1.32 1.98 2 3 C1.24074219 3.61488281 0.48148437 4.22976563 -0.30078125 4.86328125 C-1.29464844 5.67152344 -2.28851563 6.47976563 -3.3125 7.3125 C-4.79169922 8.51326172 -4.79169922 8.51326172 -6.30078125 9.73828125 C-8.31602166 11.42688356 -10.19488009 13.09630699 -12 15 C-11.49303621 10.56406686 -9.82825762 8.37566232 -7 5 C-7 4.34 -7 3.68 -7 3 C-7.66 2.67 -8.32 2.34 -9 2 C-6.03 1.34 -3.06 0.68 0 0 Z " fill="#D1CFCC" transform="translate(463,422)"/>
<path d="M0 0 C1.32 0.66 2.64 1.32 4 2 C2.23977508 3.53309913 0.46646537 5.05118701 -1.3125 6.5625 C-2.79169922 7.83287109 -2.79169922 7.83287109 -4.30078125 9.12890625 C-5.19152344 9.74636719 -6.08226562 10.36382813 -7 11 C-7.99 10.67 -8.98 10.34 -10 10 C-8.52878465 5.34115139 -8.52878465 5.34115139 -6.0625 3.75 C-4.3845189 3.13982506 -2.69385378 2.56461793 -1 2 C-0.67 1.34 -0.34 0.68 0 0 Z " fill="#C7C7C7" transform="translate(480,511)"/>
<path d="M0 0 C2.57498808 2.57498808 3.06266755 4.83827942 4.125 8.3125 C4.47820312 9.44300781 4.83140625 10.57351563 5.1953125 11.73828125 C5.91707403 14.66386802 6.16826562 17.01048079 6 20 C4.68 20.33 3.36 20.66 2 21 C1.01 19.35 0.02 17.7 -1 16 C0.32 15.67 1.64 15.34 3 15 C3 12.69 3 10.38 3 8 C2.34 8 1.68 8 1 8 C0.67 5.36 0.34 2.72 0 0 Z " fill="#A5A4A3" transform="translate(415,402)"/>
<path d="M0 0 C0.66 0.33 1.32 0.66 2 1 C1.13117188 1.85722656 0.26234375 2.71445313 -0.6328125 3.59765625 C-9.12962742 12.00824686 -9.12962742 12.00824686 -17 21 C-17.66 20.67 -18.32 20.34 -19 20 C-13.08218389 12.91529057 -6.56858667 6.47151396 0 0 Z " fill="#A9A9A7" transform="translate(201,221)"/>
<path d="M0 0 C0.66 0.99 1.32 1.98 2 3 C1.125 5.6875 1.125 5.6875 0 8 C-2.31 8 -4.62 8 -7 8 C-7.33 7.34 -7.66 6.68 -8 6 C-7.01 6 -6.02 6 -5 6 C-4.67 5.34 -4.34 4.68 -4 4 C-2.68 4.33 -1.36 4.66 0 5 C0 3.35 0 1.7 0 0 Z " fill="#AFAEAD" transform="translate(409,425)"/>
<path d="M0 0 C3.465 1.98 3.465 1.98 7 4 C7 4.66 7 5.32 7 6 C2.71 5.67 -1.58 5.34 -6 5 C-6 4.67 -6 4.34 -6 4 C-3.36 4 -0.72 4 2 4 C2 3.34 2 2.68 2 2 C1.34 2 0.68 2 0 2 C0 1.34 0 0.68 0 0 Z " fill="#A8A6A3" transform="translate(442,206)"/>
<path d="M0 0 C0.33 0.99 0.66 1.98 1 3 C0.00390625 4.82421875 0.00390625 4.82421875 -1.4375 6.6875 C-1.91058594 7.31011719 -2.38367188 7.93273437 -2.87109375 8.57421875 C-3.24363281 9.04472656 -3.61617187 9.51523437 -4 10 C-3.34 10.33 -2.68 10.66 -2 11 C-3.98 11.66 -5.96 12.32 -8 13 C-6.40956621 7.91061189 -3.2553049 4.12543357 0 0 Z " fill="#B8B8B8" transform="translate(174,251)"/>
<path d="M0 0 C0 0.66 0 1.32 0 2 C-0.99 2 -1.98 2 -3 2 C-3 2.66 -3 3.32 -3 4 C-5.375 5.0625 -5.375 5.0625 -8 6 C-8.66 5.67 -9.32 5.34 -10 5 C-8.71186658 4.16121545 -7.41936744 3.32913217 -6.125 2.5 C-5.40570313 2.0359375 -4.68640625 1.571875 -3.9453125 1.09375 C-2 0 -2 0 0 0 Z " fill="#ACA9A8" transform="translate(453,425)"/>
<path d="M0 0 C0.66 0.33 1.32 0.66 2 1 C0.02 3.31 -1.96 5.62 -4 8 C-4.66 7.67 -5.32 7.34 -6 7 C-4.02 4.69 -2.04 2.38 0 0 Z " fill="#B6B6B5" transform="translate(188,234)"/>
<path d="M0 0 C0.33 0.99 0.66 1.98 1 3 C-0.40445835 5.2636564 -2.1967913 7.0208685 -4 9 C-4.8125 7.3125 -4.8125 7.3125 -5 5 C-2.5625 2.25 -2.5625 2.25 0 0 Z " fill="#D0CDCB" transform="translate(456,428)"/>
<path d="M0 0 C0.66 0.99 1.32 1.98 2 3 C0.02 3.99 0.02 3.99 -2 5 C-2.33 4.34 -2.66 3.68 -3 3 C-3.99 2.34 -4.98 1.68 -6 1 C-4.02 0.67 -2.04 0.34 0 0 Z " fill="#979593" transform="translate(463,422)"/>
<path d="M0 0 C1.32 0.99 2.64 1.98 4 3 C2.35 4.32 0.7 5.64 -1 7 C-1.04254356 5.00045254 -1.04080783 2.99958364 -1 1 C-0.67 0.67 -0.34 0.34 0 0 Z " fill="#BBBABA" transform="translate(479,393)"/>
<path d="M0 0 C3.24299151 2.38957269 5.50902342 4.2047869 7 8 C6.01 8 5.02 8 4 8 C4 7.01 4 6.02 4 5 C3.01 5 2.02 5 1 5 C0.67 3.35 0.34 1.7 0 0 Z " fill="#B6B6B6" transform="translate(402,384)"/>
<path d="M0 0 C0.33 0.99 0.66 1.98 1 3 C-1.97 5.475 -1.97 5.475 -5 8 C-5.66 7.67 -6.32 7.34 -7 7 C-4.66666667 4.66666667 -2.33333333 2.33333333 0 0 Z " fill="#AAAAAA" transform="translate(421,456)"/>
<path d="M0 0 C2.31 0.33 4.62 0.66 7 1 C5.515 2.485 5.515 2.485 4 4 C3.01 3.67 2.02 3.34 1 3 C0.67 2.01 0.34 1.02 0 0 Z " fill="#ACABAA" transform="translate(470,400)"/>
<path d="M0 0 C0.91222891 3.07877257 1.32903218 5.79193623 1 9 C-0.515625 10.65234375 -0.515625 10.65234375 -2 12 C-1.85831863 10.56208484 -1.71148957 9.1246763 -1.5625 7.6875 C-1.48128906 6.88699219 -1.40007812 6.08648437 -1.31640625 5.26171875 C-1 3 -1 3 0 0 Z " fill="#A5A5A4" transform="translate(141,320)"/>
</svg>
